#!OML:ASF E:\acrobat2\Project_11_07_03\Capture day 1\Session 1\Acrobat.ASF
:FULLY-SPECIFIED
:DEGREES
482
root 8.68948 9.86151 -11.6197 -140.898 50.9183 52.8244
lowerback 5.87326 2.64547 -3.84582
upperback 2.17246 3.09966 -12.2199
thorax -0.528563 1.47485 -11.1033
lowerneck -3.3349 5.33509 -1.81531
upperneck -2.72152 6.87931 -18.5675
head 0.380913 3.13946 -5.16466
rclavicle 8.90555e-014 3.18055e-014
rhumerus -7.36084 16.1744 -66.0007
rradius 142.647
rwrist -13.7261
rhand -21.4239 -13.874
rfingers 7.12502
rthumb 4.96509 -43.7959
lclavicle 8.90555e-014 3.18055e-014
lhumerus 30.2521 -48.2651 80.1103
lradius 89.6856
lwrist 13.1573
lhand -41.2756 -21.1683
lfingers 7.12502
lthumb -14.1972 8.32654
rfemur -6.80871 -21.5011 13.8486
rtibia 68.4709
rfoot -2.52131 -19.2167
rtoes 12.1124
lfemur -21.8969 -8.3561 18.714
ltibia 49.6293
lfoot 14.9539 -10.8206
ltoes 38.3633
483
root 8.64786 9.9073 -11.7889 -137.038 53.3285 56.9264
lowerback 5.34391 2.64677 -4.51583
upperback 1.36161 3.01521 -11.8657
thorax -1.16062 1.40612 -10.2843
lowerneck -2.34538 5.79936 -0.752725
upperneck -5.58678 6.88486 -20.0496
head -0.519591 3.3194 -5.87414
rclavicle 3.29983e-014 5.08889e-014
rhumerus -7.03765 18.4341 -67.1114
rradius 142.633
rwrist -14.2302
rhand -20.4965 -13.8302
rfingers 7.12502
rthumb 5.86049 -43.7292
lclavicle 3.29983e-014 5.08889e-014
lhumerus 31.0708 -48.2917 82.1611
lradius 88.2194
lwrist 14.5502
lhand -42.1893 -22.0139
lfingers 7.12502
lthumb -15.0775 7.417
rfemur -6.16759 -21.0642 13.5779
rtibia 68.8245
rfoot -2.81966 -19.1156
rtoes 11.2314
lfemur -21.9895 -8.99811 16.3772
ltibia 51.257
lfoot 15.9385 -9.82141
ltoes 41.3198
484
root 8.59719 9.94604 -11.9609 -132.496 55.5548 61.7964
lowerback 4.78142 2.71071 -5.09508
upperback 0.602334 3.04665 -11.4351
thorax -1.69691 1.41325 -9.44877
lowerneck -1.64811 6.28481 0.108082
upperneck -8.08035 6.99171 -21.3133
head -1.26018 3.50721 -6.48987
rclavicle -9.36027e-014 -3.49861e-014
rhumerus -6.97719 20.4636 -68.3268
rradius 142.441
rwrist -14.7421
rhand -19.6113 -13.5224
rfingers 7.12502
rthumb 6.71507 -43.3959
lclavicle -9.36027e-014 -3.49861e-014
lhumerus 32.1917 -48.2375 83.824
lradius 86.8704
lwrist 15.6813
lhand -44.3571 -24.1581
lfingers 7.12502
lthumb -17.165 5.1037
rfemur -5.37684 -20.5233 13.3034
rtibia 69.032
rfoot -3.20665 -19.0213
rtoes 11.0186
lfemur -22.1708 -9.70473 14.1928
ltibia 52.8751
lfoot 16.6908 -8.66624
ltoes 44.2259
485
root 8.53725 9.97884 -12.1355 -126.981 57.431 67.7439
lowerback 4.14268 2.82605 -5.40672
upperback -0.116702 3.19288 -10.9162
thorax -2.12302 1.49167 -8.68154
lowerneck -1.26333 6.74972 0.748174
upperneck -10.2817 7.13567 -22.245
head -1.87587 3.67293 -6.9667
rclavicle 1.05753e-013 7.31528e-014
rhumerus -7.40624 22.0231 -69.4466
rradius 142.519
rwrist -15.6694
rhand -18.7055 -13.0169
rfingers 7.12502
rthumb 7.58941 -42.8607
lclavicle 1.05753e-013 7.31528e-014
lhumerus 33.0588 -48.0255 85.3165
lradius 85.9781
lwrist 16.2596
lhand -47.285 -27.801
lfingers 7.12502
lthumb -19.9813 1.19169
rfemur -4.47384 -19.8281 13.2042
rtibia 69.0687
rfoot -3.68652 -18.9795
rtoes 11.4949
lfemur -22.4461 -10.4458 12.3479
ltibia 54.5146
lfoot 17.0527 -8.0119
ltoes 45.6606
486
root 8.4679 10.0046 -12.3124 -120.381 58.8101 74.8719
lowerback 3.42512 2.97725 -5.41261
upperback -0.821617 3.42648 -10.2928
thorax -2.47046 1.62057 -7.98187
lowerneck -0.980442 7.23073 1.21556
upperneck -12.3096 7.34234 -22.9205
head -2.43272 3.84627 -7.33897
rclavicle 1.22451e-013 -1.59028e-013
rhumerus -8.22383 23.1721 -70.4563
rradius 142.863
rwrist -17.0886
rhand -17.75 -12.3756
rfingers 7.12502
rthumb 8.51158 -42.184
lclavicle 1.22451e-013 -1.59028e-013
lhumerus 33.1101 -47.5673 86.8445
lradius 85.8486
lwrist 16.074
lhand -50.0673 -33.4519
lfingers 7.12502
lthumb -22.6537 -4.76145
rfemur -3.50332 -18.9699 13.3376
rtibia 68.9363
rfoot -4.1699 -19.0307
rtoes 12.403
lfemur -22.8094 -11.215 10.9049
ltibia 56.1923
lfoot 17.3438 -7.52277
ltoes 46.7935
487
root 8.39015 10.0213 -12.4896 -112.82 59.6213 83.0263
lowerback 2.64197 3.15388 -5.20692
upperback -1.52354 3.71668 -9.56248
thorax -2.76828 1.77902 -7.29113
lowerneck -0.768107 7.70747 1.47438
upperneck -14.2393 7.57472 -23.2814
head -2.97158 4.01376 -7.58121
rclavicle -7.07673e-014 6.36111e-014
rhumerus -9.15223 24.0917 -71.419
rradius 143.227
rwrist -18.9116
rhand -16.7244 -11.6816
rfingers 7.12502
rthumb 9.5013 -41.4474
lclavicle -7.07673e-014 6.36111e-014
lhumerus 32.0379 -46.757 88.5642
lradius 86.6261
lwrist 15.0206
lhand -51.9968 -39.5392
lfingers 7.12502
lthumb -24.5044 -11.0869
rfemur -2.52922 -17.9583 13.6284
rtibia 68.6666
rfoot -4.54621 -19.1936
rtoes 13.2318
lfemur -23.2638 -12.0139 9.78994
ltibia 57.9177
lfoot 17.5846 -7.22016
ltoes 47.5502
488
root 8.30671 10.0272 -12.6645 -104.648 59.8531 91.8249
lowerback 1.83329 3.36843 -4.94444
upperback -2.21623 4.06107 -8.7697
thorax -3.04157 1.96295 -6.57206
lowerneck -0.614497 8.16214 1.59355
upperneck -16.063 7.81763 -23.3558
head -3.49337 4.16572 -7.71014
rclavicle -2.38542e-014 6.36111e-015
rhumerus -10.1686 24.833 -72.4035
rradius 143.57
rwrist -21.0351
rhand -15.6141 -10.9943
rfingers 7.12502
rthumb 10.5724 -40.7084
lclavicle -2.38542e-014 6.36111e-015
lhumerus 29.8427 -45.6221 90.5091
lradius 88.1603
lwrist 13.0858
lhand -52.8429 -44.2783
lfingers 7.12502
lthumb -25.3153 -15.9383
rfemur -1.60869 -16.8283 13.9404
rtibia 68.3012
rfoot -4.75713 -19.4841
rtoes 13.6915
lfemur -23.8423 -12.8592 8.87124
ltibia 59.7015
lfoot 17.7965 -7.0874
ltoes 47.8732
489
root 8.21945 10.0225 -12.8371 -96.3204 59.5095 100.801
lowerback 1.01843 3.62069 -4.70305
upperback -2.87809 4.45096 -7.97299
thorax -3.28374 2.16654 -5.84293
lowerneck -0.507031 8.5968 1.68203
upperneck -17.7395 8.09457 -23.1847
head -3.97908 4.30959 -7.75219
rclavicle -7.31528e-014 -3.81667e-014
rhumerus -11.1352 25.6356 -73.7329
rradius 143.571
rwrist -22.999
rhand -14.4395 -10.3294
rfingers 7.12502
rthumb 11.7053 -39.9823
lclavicle -7.31528e-014 -3.81667e-014
lhumerus 26.9071 -44.2142 92.561
lradius 90.011
lwrist 10.3849
lhand -53.064 -46.9144
lfingers 7.12502
lthumb -25.5271 -18.6046
rfemur -0.751989 -15.6489 14.1416
rtibia 67.8612
rfoot -4.82602 -19.8735
rtoes 13.9953
lfemur -24.5921 -13.7978 8.0511
ltibia 61.5655
lfoot 17.9816 -7.11206
ltoes 47.8431
490
root 8.12848 10.0098 -13.009 -88.2643 58.6355 109.537
lowerback 0.171178 3.90799 -4.50869
upperback -3.46841 4.88574 -7.22314
thorax -3.4385 2.38926 -5.13615
lowerneck -0.443411 9.0065 1.77948
upperneck -19.2733 8.40673 -22.7675
head -4.42923 4.4435 -7.71123
rclavicle 4.92986e-014 -9.22361e-014
rhumerus -12.1152 26.4368 -75.3715
rradius 143.358
rwrist -24.7696
rhand -13.2137 -9.75653
rfingers 7.12502
rthumb 12.8872 -39.3386
lclavicle 4.92986e-014 -9.22361e-014
lhumerus 23.8298 -42.6174 94.5361
lradius 91.8201
lwrist 7.35661
lhand -53.2792 -47.9569
lfingers 7.12502
lthumb -25.7331 -19.6767
rfemur 0.0689271 -14.4898 14.1069
rtibia 67.3448
rfoot -4.82745 -20.2652
rtoes 14.5038
lfemur -25.5485 -14.8647 7.26421
ltibia 63.5411
lfoot 18.1451 -7.24515
ltoes 47.6345
491
root 8.03445 9.9905 -13.1797 -80.8309 57.2082 117.701
lowerback -0.691566 4.26834 -4.29417
upperback -3.96012 5.41933 -6.54328
thorax -3.47843 2.65696 -4.50985
lowerneck -0.397941 9.37739 1.97716
upperneck -20.6324 8.73108 -22.2763
head -4.82523 4.5586 -7.65652
rclavicle 1.145e-013 1.46306e-013
rhumerus -13.1698 27.0134 -77.1735
rradius 143.072
rwrist -26.3884
rhand -11.957 -9.35163
rfingers 7.12502
rthumb 14.0984 -38.8534
lclavicle 1.145e-013 1.46306e-013
lhumerus 21.1299 -41.1152 96.274
lradius 93.3359
lwrist 4.45148
lhand -53.6345 -49.1182
lfingers 7.12502
lthumb -26.0734 -20.8878
rfemur 0.867845 -13.3935 13.9123
rtibia 66.7408
rfoot -4.7992 -20.6116
rtoes 15.0298
lfemur -26.7352 -16.0431 6.61168
ltibia 65.6542
lfoot 18.3154 -7.45848
ltoes 47.323
492
root 7.93516 9.96533 -13.3484 -74.3161 55.2271 125.049
lowerback -1.53 4.74441 -3.96405
upperback -4.34107 6.1071 -5.93697
thorax -3.40137 2.99467 -4.01729
lowerneck -0.381649 9.66628 2.31829
upperneck -21.8032 8.99688 -21.8017
head -5.1595 4.62371 -7.62195
rclavicle -5.08889e-014 -6.36111e-014
rhumerus -14.2356 27.1593 -78.931
rradius 142.753
rwrist -27.9391
rhand -10.7084 -9.17351
rfingers 7.12502
rthumb 15.3014 -38.5875
lclavicle -5.08889e-014 -6.36111e-014
lhumerus 19.1791 -39.9959 97.6342
lradius 94.4693
lwrist 2.02606
lhand -54.2142 -51.4102
lfingers 7.12502
lthumb -26.6283 -23.2628
rfemur 1.71762 -12.3428 13.651
rtibia 66.0187
rfoot -4.80007 -20.8573
rtoes 15.6043
lfemur -28.0956 -17.3149 6.19444
ltibia 67.9204
lfoot 18.4572 -7.82828
ltoes 46.7951
493
root 7.83102 9.93604 -13.513 -68.8718 52.6966 131.434
lowerback -2.281 5.26212 -3.35502
upperback -4.65092 6.8366 -5.3362
thorax -3.27311 3.34134 -3.67773
lowerneck -0.364668 9.86942 2.63493
upperneck -22.8739 9.17806 -21.2414
head -5.48558 4.6355 -7.55223
rclavicle -8.26944e-014 3.18055e-014
rhumerus -15.2485 27.1396 -80.6405
rradius 142.431
rwrist -29.3885
rhand -9.50473 -9.17839
rfingers 7.12502
rthumb 16.4605 -38.5001
lclavicle -8.26944e-014 3.18055e-014
lhumerus 17.8202 -39.1098 98.5924
lradius 95.4777
lwrist 0.130856
lhand -54.8399 -53.9739
lfingers 7.12502
lthumb -27.227 -25.9188
rfemur 2.63044 -11.3619 13.4786
rtibia 65.1789
rfoot -4.74146 -20.992
rtoes 15.4711
lfemur -29.6089 -18.6204 6.16088
ltibia 70.3431
lfoot 18.551 -8.36716
ltoes 46.0976
494
root 7.72314 9.90347 -13.6713 -64.4993 49.686 136.834
lowerback -2.88005 5.84762 -2.41897
upperback -4.92597 7.63073 -4.74677
thorax -3.14973 3.70483 -3.52964
lowerneck -0.285873 9.98386 3.01047
upperneck -23.8601 9.25268 -20.7592
head -5.80408 4.59255 -7.51877
rclavicle -5.40694e-014 -6.36111e-014
rhumerus -16.3409 26.948 -82.3895
rradius 142.181
rwrist -30.6054
rhand -8.36478 -9.31473
rfingers 7.12502
rthumb 17.5578 -38.5419
lclavicle -5.40694e-014 -6.36111e-014
lhumerus 16.7273 -38.6125 99.1576
lradius 96.5726
lwrist -1.35585
lhand -55.0242 -56.319
lfingers 7.12502
lthumb -27.4033 -28.2918
rfemur 3.59278 -10.4525 13.4842
rtibia 64.2284
rfoot -4.60823 -21.0266
rtoes 14.5986
lfemur -31.2674 -19.8958 6.59099
ltibia 72.9096
lfoot 18.4132 -9.33408
ltoes 44.6985
495
root 7.61244 9.86806 -13.8218 -61.0563 46.2992 141.37
lowerback -3.30336 6.47493 -1.21643
upperback -5.18875 8.44897 -4.10642
thorax -3.07439 4.06449 -3.47997
lowerneck -0.220154 10.0272 3.41884
upperneck -24.7184 9.24225 -20.3945
head -6.08345 4.50607 -7.52188
rclavicle 4.77083e-014 -5.08889e-014
rhumerus -17.5645 26.7976 -84.2863
rradius 141.971
rwrist -31.4465
rhand -7.27305 -9.58755
rfingers 7.12502
rthumb 18.6082 -38.7175
lclavicle 4.77083e-014 -5.08889e-014
lhumerus 15.6436 -38.3927 99.4122
lradius 97.7981
lwrist -2.68908
lhand -54.9042 -57.9698
lfingers 7.12502
lthumb -27.2885 -29.9245
rfemur 4.58287 -9.60175 13.6731
rtibia 63.1879
rfoot -4.42428 -20.9823
rtoes 13.2188
lfemur -33.0543 -21.0749 7.48197
ltibia 75.5935
lfoot 18.1691 -10.244
ltoes 43.5879
496
root 7.49971 9.82992 -13.9631 -58.3666 42.6599 145.219
lowerback -3.53135 7.10813 0.191667
upperback -5.44508 9.24556 -3.40216
thorax -3.0699 4.39626 -3.48798
lowerneck -0.181587 10.0213 3.80524
upperneck -25.4553 9.1673 -20.1519
head -6.3233 4.39172 -7.55317
rclavicle -1.62208e-013 3.81667e-014
rhumerus -19.0472 26.8206 -86.4413
rradius 141.869
rwrist -31.8591
rhand -6.19393 -9.98833
rfingers 7.12502
rthumb 19.6459 -39.0156
lclavicle -1.62208e-013 3.81667e-014
lhumerus 14.3738 -38.273 99.4815
lradius 99.0753
lwrist -4.12361
lhand -54.7105 -58.8276
lfingers 7.12502
lthumb -27.1032 -30.7533
rfemur 5.59681 -8.81932 13.9761
rtibia 62.0823
rfoot -4.23235 -20.8754
rtoes 11.6968
lfemur -34.9402 -22.1334 8.76497
ltibia 78.3556
lfoot 17.7767 -11.0678
ltoes 42.7181
